<svg width="20" height="20" viewBox="0 0 20 20" fill="none" xmlns="http://www.w3.org/2000/svg">
<path d="M10 0C4.4775 0 0 4.4775 0 10C0 15.5225 4.4775 20 10 20C15.5225 20 20 15.5225 20 10C20 4.4775 15.5225 0 10 0ZM10 18.75C5.175 18.75 1.25 14.825 1.25 10C1.25 5.175 5.175 1.25 10 1.25C14.825 1.25 18.75 5.175 18.75 10C18.75 14.825 14.825 18.75 10 18.75ZM10 3.75C9.66848 3.75 9.35054 3.8817 9.11612 4.11612C8.8817 4.35054 8.75 4.66848 8.75 5V11.25C8.75 11.5815 8.8817 11.8995 9.11612 12.1339C9.35054 12.3683 9.66848 12.5 10 12.5C10.3315 12.5 10.6495 12.3683 10.8839 12.1339C11.1183 11.8995 11.25 11.5815 11.25 11.25V5C11.25 4.66848 11.1183 4.35054 10.8839 4.11612C10.6495 3.8817 10.3315 3.75 10 3.75V3.75ZM8.75 14.98C8.75 15.3115 8.8817 15.6295 9.11612 15.8639C9.35054 16.0983 9.66848 16.23 10 16.23C10.3315 16.23 10.6495 16.0983 10.8839 15.8639C11.1183 15.6295 11.25 15.3115 11.25 14.98C11.25 14.8158 11.2177 14.6533 11.1548 14.5016C11.092 14.35 11 14.2122 10.8839 14.0961C10.7678 13.98 10.63 13.888 10.4784 13.8252C10.3267 13.7623 10.1642 13.73 10 13.73C9.83585 13.73 9.6733 13.7623 9.52165 13.8252C9.36999 13.888 9.23219 13.98 9.11612 14.0961C9.00004 14.2122 8.90797 14.35 8.84515 14.5016C8.78233 14.6533 8.75 14.8158 8.75 14.98V14.98Z" fill="#EB5757"/>
</svg>
