<svg width="117" height="65" viewBox="0 0 117 65" fill="none" xmlns="http://www.w3.org/2000/svg">
<path d="M39.6624 54.9287V26.6686H45.7994L56.0952 43.4228L53.834 39.7431L62.1111 26.6686H68.0059V54.9287H61.344V46.1277C61.344 43.7054 61.3978 41.5253 61.5055 39.5875C61.6401 37.6496 61.607 37.9485 61.6847 37.8279L62.9186 35.9137L55.0858 48.0655H52.421L44.7497 35.9944L46.0322 38.0125C46.1828 40.3336 46.0148 37.4747 46.1224 39.3856C46.257 41.2696 46.3243 43.517 46.3243 46.1277V54.9287H39.6624Z" fill="#151D3B"/>
<path d="M75.1092 54.9287V26.6686H94.8124V32.5224H81.7711V49.0748H95.2162V54.9287H75.1092ZM81.7711 43.342V37.7708H92.9955V43.342H81.7711Z" fill="#151D3B"/>
<path d="M100.567 54.9287V49.1555H105.331V32.4417H100.567V26.6686H117V32.4417H112.195V49.1555H117V54.9287H100.567Z" fill="#151D3B"/>
<path d="M33.6462 0L45.3016 6.7286L11.6554 65L0 58.2714L33.6462 0Z" fill="#FFD336"/>
<path d="M47.3247 0L58.9801 6.7286L25.3339 65L13.6785 58.2714L47.3247 0Z" fill="#F5C214"/>
</svg>
